<svg width="20" height="21" viewBox="0 0 20 21" fill="none" xmlns="http://www.w3.org/2000/svg">
<g clip-path="url(#clip0_1882_2228)">
<path d="M19.8052 11.1888C19.8052 10.5091 19.7501 9.82561 19.6325 9.15686H10.2002V13.0077H15.6016C15.3775 14.2496 14.6573 15.3483 13.6027 16.0464V18.5451H16.8252C18.7176 16.8034 19.8052 14.2313 19.8052 11.1888Z" fill="#4285F4"/>
<path d="M10.1999 20.9591C12.897 20.9591 15.1714 20.0736 16.8286 18.545L13.6061 16.0464C12.7096 16.6564 11.5521 17.0018 10.2036 17.0018C7.59474 17.0018 5.38272 15.2417 4.58904 12.8754H1.26367V15.4512C2.96127 18.828 6.41892 20.9591 10.1999 20.9591Z" fill="#34A853"/>
<path d="M4.58564 12.8754C4.16676 11.6334 4.16676 10.2886 4.58564 9.04661V6.47083H1.26395C-0.154389 9.29647 -0.154389 12.6255 1.26395 15.4512L4.58564 12.8754Z" fill="#FBBC04"/>
<path d="M10.1999 4.91655C11.6256 4.8945 13.0035 5.43097 14.036 6.41572L16.8911 3.56068C15.0833 1.86308 12.6838 0.929774 10.1999 0.95917C6.41892 0.95917 2.96126 3.09035 1.26367 6.47084L4.58537 9.04662C5.37537 6.6766 7.59106 4.91655 10.1999 4.91655Z" fill="#EA4335"/>
</g>
<defs>
<clipPath id="clip0_1882_2228">
<rect width="20" height="20" fill="white" transform="translate(0 0.958496)"/>
</clipPath>
</defs>
</svg>
